<svg xmlns="http://www.w3.org/2000/svg" viewBox="0 0 75 46">
  <g fill="#fff" stroke-miterlimit="10" font-family="none" font-size="none" font-weight="none" style="mix-blend-mode:normal" text-anchor="none">
    <path d="M24.059 27.871c0 3.058-.244 5.722-.73 7.992-.483 2.27-1.224 4.155-2.226 5.654-1.001 1.494-2.276 2.615-3.825 3.363-1.55.743-3.386 1.115-5.51 1.115a15.24 15.24 0 0 1-5.145-.885c-1.654-.594-3.075-1.416-4.263-2.466C1.172 41.594.385 40.386 0 39.02c.803-.553 1.762-1.08 2.877-1.581a44.276 44.276 0 0 1 3.32-1.321 54.443 54.443 0 0 1 2.749-.897c.154.537.363 1.02.626 1.448.26.428.578.766.955 1.012s.797.37 1.26.37c.538 0 .982-.287 1.331-.86.345-.578.614-1.32.809-2.225.19-.904.324-1.864.401-2.878.077-1.014.116-1.95.116-2.811 0-1.168-.057-2.448-.17-3.842a79.532 79.532 0 0 0-.475-4.247 66.455 66.455 0 0 0-.681-4.054 45.186 45.186 0 0 0-.772-3.284l9.681-.437c.122.275.294.915.517 1.921.223 1.006.45 2.216.681 3.63.232 1.41.428 2.894.59 4.453.163 1.56.244 3.044.244 4.454zM15.484.198c1.143 0 2.173.248 3.09.745.915.501 1.643 1.158 2.182 1.97a4.75 4.75 0 0 1 .81 2.672c0 1.014-.295 1.955-.883 2.824a6.679 6.679 0 0 1-2.274 2.09 5.921 5.921 0 0 1-2.968.794 6.466 6.466 0 0 1-2.822-.642 5.56 5.56 0 0 1-2.17-1.818c-.556-.784-.834-1.69-.834-2.721 0-1.103.258-2.103.772-3A5.784 5.784 0 0 1 12.492.98c.888-.521 1.885-.782 2.992-.782zm23.914 11.307c.494-.17 1.192-.301 2.092-.394.904-.093 1.78-.14 2.627-.14.706 0 1.486.03 2.342.091.855.065 1.56.142 2.116.23.154 1.075.27 2.148.347 3.218.077 1.066.115 2.12.115 3.163 0 2.412-.213 4.672-.638 6.78-.422 2.113-1.111 3.971-2.068 5.575-.953 1.604-2.22 2.862-3.801 3.775-1.577.913-3.513 1.37-5.808 1.37-2.42 0-4.417-.473-5.99-1.418-1.57-.942-2.794-2.265-3.674-3.97-.875-1.704-1.492-3.708-1.848-6.01-.353-2.303-.53-4.805-.53-7.508 0-.937.019-1.892.055-2.866.04-.973.091-1.96.152-2.957.507-.048 1.166-.09 1.977-.127.806-.04 1.542-.06 2.207-.06.97 0 1.942.046 2.92.139.98.093 1.749.224 2.304.394-.077.828-.154 1.8-.23 2.914a49.79 49.79 0 0 0-.116 3.442c0 1.563.073 3.078.219 4.544.146 1.467.438 2.668.875 3.606.438.937 1.097 1.405 1.977 1.405.83 0 1.463-.422 1.897-1.266.43-.844.722-1.923.876-3.236.154-1.313.231-2.668.231-4.065 0-1.321-.06-2.58-.182-3.775-.126-1.2-.274-2.152-.444-2.854z"/>
    <path d="M62.898 27.867c.002 3.058-.24 5.722-.724 7.993-.481 2.27-1.221 4.156-2.222 5.655-1 1.496-2.274 2.617-3.823 3.366-1.548.744-3.384 1.117-5.509 1.119a15.24 15.24 0 0 1-5.145-.881c-1.655-.593-3.077-1.414-4.265-2.463-1.19-1.05-1.977-2.257-2.363-3.622.803-.554 1.761-1.082 2.876-1.583a44.31 44.31 0 0 1 3.32-1.324 54.41 54.41 0 0 1 2.748-.899 5.76 5.76 0 0 0 .627 1.448c.26.428.578.765.956 1.011.377.246.797.37 1.259.369.539 0 .983-.287 1.331-.861.344-.578.613-1.32.807-2.225.19-.905.323-1.864.4-2.878a37.31 37.31 0 0 0 .113-2.812 47.896 47.896 0 0 0-.173-3.841 79.568 79.568 0 0 0-.478-4.248 66.359 66.359 0 0 0-.684-4.053 45.21 45.21 0 0 0-.775-3.284l9.682-.443c.122.275.294.915.518 1.92.224 1.006.452 2.216.684 3.63.232 1.41.43 2.894.593 4.453.164 1.559.246 3.043.247 4.453zM54.302.2c1.143 0 2.173.247 3.09.744.917.5 1.645 1.156 2.185 1.967.54.816.81 1.706.81 2.672.001 1.014-.292 1.955-.88 2.824a6.68 6.68 0 0 1-2.272 2.092 5.921 5.921 0 0 1-2.967.796 6.467 6.467 0 0 1-2.823-.64 5.561 5.561 0 0 1-2.172-1.816c-.556-.783-.835-1.69-.835-2.72-.001-1.103.256-2.103.77-3A5.784 5.784 0 0 1 51.31.984c.888-.521 1.885-.783 2.992-.783zm19.035 33.415c-.276.016-.874.055-1.794.116-.917.065-1.89.098-2.92.1-.709 0-1.437-.02-2.183-.06-.75-.035-1.494-.1-2.232-.192.06-.4.145-1.206.254-2.418.104-1.212.215-2.644.331-4.296.112-1.648.223-3.355.33-5.12.109-1.766.193-3.424.252-4.975.06-1.552.09-2.804.089-3.757.401-.029.975-.06 1.72-.092.747-.03 1.552-.06 2.415-.093.864-.033 1.689-.06 2.475-.08a59.275 59.275 0 0 1 1.873-.038c.106.52.19 1.377.252 2.569a73.99 73.99 0 0 1 .1 3.968 131.03 131.03 0 0 1-.07 4.296 131.2 131.2 0 0 1-.191 4.26 66.32 66.32 0 0 1-.308 3.582c-.125 1.026-.256 1.77-.393 2.23zm-3.393-23.46c-1.618.002-3-.458-4.149-1.378-1.148-.92-1.723-2.162-1.724-3.725 0-1.047.268-1.946.807-2.697a5.378 5.378 0 0 1 2.09-1.741A6.184 6.184 0 0 1 69.664 0c1.508-.001 2.775.475 3.802 1.427 1.022.953 1.534 2.188 1.535 3.707.001 1.426-.487 2.62-1.463 3.583-.976.958-2.174 1.437-3.593 1.438z" data-paper-data="{&quot;rotation&quot;:-0.0425335239467044}"/>
  </g>
</svg>
