<svg version="1.2" xmlns="http://www.w3.org/2000/svg" viewBox="0 0 62.000000000000014 13.000000000000004" width="63" height="14"><style>.a{fill:#fff}</style><path fill-rule="evenodd" class="a" d="m6.8 8.3q0 1.2-0.3 2-0.2 0.9-0.6 1.5-0.4 0.6-1.1 0.9-0.6 0.3-1.5 0.3-0.7 0-1.4-0.3-0.7-0.2-1.2-0.6-0.5-0.4-0.7-0.9 0.3-0.3 0.8-0.5 0.5-0.1 0.9-0.3 0.5-0.1 0.8-0.2 0.1 0.2 0.2 0.3 0.1 0.2 0.3 0.3 0.1 0.1 0.3 0.1 0.2 0 0.4-0.2 0.1-0.2 0.2-0.6 0.1-0.3 0.1-0.7 0.1-0.4 0.1-0.8 0-0.4-0.1-1 0-0.5-0.1-1.1-0.1-0.5-0.2-1-0.1-0.5-0.2-0.9l2.7-0.1q0 0.1 0.1 0.5 0.1 0.4 0.2 1 0.1 0.5 0.2 1.1 0.1 0.6 0.1 1.2zm-2.5-7.2q0.5 0 0.9 0.2 0.4 0.2 0.6 0.5 0.3 0.3 0.3 0.7 0 0.4-0.3 0.7-0.2 0.4-0.6 0.6-0.4 0.2-0.9 0.2-0.4 0-0.8-0.2-0.3-0.2-0.6-0.5-0.2-0.3-0.2-0.7 0-0.4 0.2-0.7 0.2-0.4 0.6-0.6 0.4-0.2 0.8-0.2zm6.6 2.9q0.3 0 0.6-0.1 0.4 0 0.8 0 0.3 0 0.6 0 0.4 0 0.6 0.1 0.1 0.4 0.1 0.8 0.1 0.4 0.1 0.8 0 1-0.2 1.8-0.2 0.8-0.6 1.4-0.4 0.6-1.1 1-0.6 0.4-1.6 0.4-1 0-1.7-0.4-0.6-0.4-1-1-0.4-0.7-0.5-1.6-0.2-0.9-0.2-1.9 0-0.4 0-0.8 0-0.4 0.1-0.8 0.2 0 0.5 0 0.4 0 0.6 0 0.5 0 0.9 0 0.4 0.1 0.6 0.1 0 0.4 0 0.8-0.1 0.4-0.1 0.9 0 0.6 0.1 1.2 0 0.5 0.2 0.9 0.2 0.4 0.6 0.4 0.3 0 0.5-0.4 0.2-0.3 0.3-0.8 0-0.5 0-1.1 0-0.5 0-0.9-0.1-0.5-0.2-0.8zm6.5 4.3q0 1.2-0.2 2-0.2 0.9-0.6 1.5-0.5 0.6-1.1 0.9-0.7 0.3-1.6 0.3-0.7 0-1.4-0.3-0.7-0.2-1.2-0.6-0.5-0.4-0.7-0.9 0.4-0.3 0.8-0.5 0.5-0.1 1-0.3 0.4-0.1 0.8-0.2 0 0.2 0.1 0.3 0.1 0.2 0.3 0.3 0.2 0.1 0.3 0.1 0.3 0 0.4-0.2 0.2-0.2 0.2-0.6 0.1-0.3 0.2-0.7 0-0.4 0-0.8 0-0.4-0.1-1 0-0.5-0.1-1.1-0.1-0.5-0.2-1-0.1-0.5-0.2-0.9l2.7-0.1q0.1 0.1 0.2 0.5 0.1 0.4 0.2 1 0.1 0.5 0.1 1.1 0.1 0.6 0.1 1.2zm-2.4-7.2q0.5 0 0.9 0.2 0.3 0.2 0.6 0.5 0.2 0.3 0.2 0.7 0 0.4-0.3 0.7-0.2 0.4-0.6 0.6-0.4 0.2-0.8 0.2-0.4 0-0.8-0.2-0.4-0.2-0.6-0.5-0.3-0.3-0.3-0.7 0-0.4 0.3-0.7 0.2-0.4 0.5-0.6 0.4-0.2 0.9-0.2zm5.2 8.7q-0.1 0-0.5 0-0.4 0-0.8 0-0.3 0-0.6 0-0.3 0-0.6-0.1 0-0.1 0-0.6 0.1-0.5 0.1-1.1 0.1-0.6 0.1-1.3 0.1-0.7 0.1-1.3 0-0.6 0-1 0.2 0 0.5 0 0.3 0 0.7 0 0.3 0 0.7 0 0.3-0.1 0.5-0.1 0 0.2 0.1 0.7 0 0.5 0 1 0 0.6 0 1.1 0 0.6-0.1 1.2 0 0.5-0.1 0.9 0 0.4-0.1 0.6zm-0.9-6.1q-0.7 0-1.2-0.4-0.5-0.3-0.5-0.9 0-0.5 0.3-0.7 0.2-0.3 0.5-0.5 0.4-0.2 0.8-0.2 0.6 0 1.1 0.4 0.4 0.4 0.4 1 0 0.5-0.4 0.9-0.4 0.4-1 0.4zm6.8 2.7q-0.4-0.2-0.7-0.4-0.4-0.3-0.6-0.6-0.2-0.4-0.2-0.9 0-0.2 0-0.4 0.1-0.2 0.1-0.3 0.1-0.2 0.1-0.4 0-0.2 0-0.4 0-0.4-0.1-0.6-0.1-0.3-0.4-0.5-0.2-0.2-0.6-0.3 0.2-0.4 0.6-0.9 0.3-0.4 0.6-0.7 0.6 0.1 1.1 0.5 0.5 0.4 0.8 1 0.3 0.5 0.3 1.1 0 0.1 0 0.3-0.1 0.2-0.1 0.4-0.1 0.2-0.2 0.5 0 0.2 0 0.5 0 0.6 0.3 0.8 0.3 0.3 0.8 0.3 0.1 0.2 0.1 0.4 0.1 0.3 0.1 0.5 0 0.2-0.1 0.4 0 0.3-0.1 0.4-0.5 0.1-0.7 0.3-0.2 0.2-0.2 0.6 0 0.2 0.1 0.5 0.1 0.3 0.1 0.5 0.1 0.3 0.2 0.5 0 0.2 0 0.5 0 0.6-0.3 1.2-0.3 0.5-0.8 0.9-0.5 0.4-1.1 0.6-0.1-0.2-0.4-0.7-0.2-0.5-0.3-1 0.5-0.3 0.7-0.5 0.2-0.2 0.2-0.5 0-0.3-0.1-0.5-0.1-0.3-0.2-0.5-0.1-0.3-0.1-0.6-0.1-0.2-0.1-0.5 0-0.5 0.3-0.9 0.3-0.3 0.7-0.6m6.3-3q0.6 0 1 0.5 0.4 0.4 0.4 1 0 0.5-0.4 0.9-0.4 0.3-1 0.3-0.4 0-0.8-0.1-0.3-0.2-0.6-0.5-0.2-0.3-0.2-0.7 0-0.4 0.2-0.7 0.2-0.3 0.6-0.5 0.4-0.2 0.8-0.2zm0.2 8.3q0 0-0.2-0.2-0.2-0.2-0.4-0.4-0.2-0.3-0.4-0.5 0.2 0 0.4-0.1 0.2-0.2 0.3-0.3 0.2-0.2 0.2-0.3 0 0 0 0-0.1 0.1-0.3 0.1-0.1 0-0.3 0-0.5 0-0.8-0.3-0.2-0.4-0.2-0.8 0-0.4 0.2-0.7 0.3-0.3 0.7-0.4 0.4-0.1 0.7-0.1 0.4 0 0.8 0.1 0.4 0.2 0.7 0.5 0.2 0.3 0.2 0.9 0 0.8-0.4 1.5-0.5 0.6-1.2 1zm5.1-1.9q0 0 0-0.4 0-0.4 0-1 0.1-0.6 0.1-1.3 0-0.7 0-1.5 0.1-0.7 0.1-1.4 0-0.7 0-1.2 0.1-0.5 0.1-0.7 0.6-0.1 1.3-0.2 0.7 0 1.4 0 0.9 0 1.6 0.2 0.7 0.2 1.1 0.7 0.3 0.5 0.3 1.3 0 0.8-0.2 1.4-0.3 0.6-0.9 0.9-0.6 0.3-1.5 0.3-0.2 0-0.4 0-0.2 0-0.3-0.1 0 0.2 0 0.6 0 0.4 0 0.9 0 0.5 0 0.9-0.1 0.5-0.1 0.7-0.1 0-0.5 0-0.3 0-0.7-0.1-0.4 0-0.8 0-0.4 0-0.6 0zm2.7-4.9q0 0.1 0.2 0.1 0.1 0 0.2 0 0.2 0 0.4-0.1 0.2-0.1 0.3-0.2 0.1-0.2 0.1-0.4 0-0.3-0.2-0.4-0.2-0.1-0.6-0.1-0.1 0-0.2 0-0.2 0-0.3 0 0 0 0 0.1 0 0.1 0 0.3 0 0.1 0 0.3 0 0.1 0 0.2 0.1 0.2 0.1 0.2zm7.7 4.7q-0.2 0.1-0.7 0.3-0.6 0.1-1.3 0.1-0.8 0-1.2-0.3-0.5-0.3-0.6-0.9-0.2-0.6-0.2-1.5 0-0.7 0-1.4 0-0.7 0-1.3 0.1-0.6 0.1-1.2 0-0.6 0.1-1.1 0-0.6 0-1.1 0.6 0 1.1 0 0.3 0 0.6 0 0.3 0 0.7 0.1-0.1 0.6-0.1 1.2-0.1 0.7-0.1 1.3 0 0.7-0.1 1.2 0 0.6 0 1.1 0 0.4 0 0.7 0 0.3 0 0.6 0 0.2 0.1 0.4 0.1 0.2 0.3 0.2 0.2 0 0.4-0.1 0.1-0.1 0.2-0.2 0 0.1 0.1 0.4 0.1 0.2 0.3 0.6 0.1 0.3 0.2 0.5 0.1 0.3 0.1 0.4zm2.9 0.3q-0.8 0-1.5-0.2-0.6-0.2-1-0.7-0.4-0.4-0.4-1.2 0-0.8 0.4-1.2 0.5-0.5 1.3-0.7 0.7-0.2 1.5-0.2 0.3 0 0.6 0.1 0.2 0 0.4 0.1 0.2 0.1 0.3 0.1 0-0.1-0.1-0.3 0-0.1-0.1-0.2-0.2-0.1-0.4-0.2-0.3-0.1-0.7-0.1-0.4 0-0.8 0.1-0.4 0.2-0.5 0.4l-2-1.1q0.3-0.4 0.8-0.7 0.5-0.2 1.2-0.4 0.6-0.1 1.3-0.1 1.2 0 1.9 0.3 0.7 0.3 1.1 0.9 0.2 0.3 0.3 0.6 0.1 0.4 0.1 0.8 0.1 0.3 0.1 0.6 0 0.3 0 0.6 0 0.5 0.1 0.7 0.1 0.1 0.3 0.1 0.1 0 0.2 0 0.2-0.1 0.2-0.1l0.7 1.5q-0.1 0.2-0.4 0.3-0.3 0.1-0.8 0.1-0.4 0-0.8-0.1-0.4-0.1-0.6-0.3-0.3-0.2-0.3-0.5-0.1 0.3-0.4 0.5-0.3 0.2-0.8 0.3-0.5 0.2-1.2 0.2zm0.5-1.7q0.3 0 0.5-0.1 0.3-0.1 0.5-0.2 0.2-0.1 0.3-0.1 0-0.1 0-0.2 0-0.2 0-0.2-0.2-0.1-0.5-0.1-0.3 0-0.6 0-0.2 0-0.5 0-0.2 0-0.4 0.1-0.2 0.1-0.2 0.3 0 0.1 0.1 0.2 0.1 0.2 0.3 0.2 0.2 0.1 0.5 0.1zm7.1 4.7q-1 0-1.9-0.3-0.8-0.3-1.4-0.6 0.1-0.2 0.3-0.6 0.2-0.4 0.4-0.8 0.3-0.3 0.4-0.5 0.3 0.2 0.6 0.3 0.4 0.2 0.8 0.3 0.5 0.1 0.9 0.1 0.4 0 0.7-0.1 0.3-0.2 0.4-0.5 0.2-0.4 0.3-0.7 0.1-0.4 0.1-0.7-0.2 0.2-0.5 0.4-0.2 0.2-0.5 0.3-0.3 0.1-0.6 0.1-1.1 0-1.7-0.5-0.5-0.5-0.8-1.4-0.2-0.8-0.2-1.9 0-0.4 0-0.8 0-0.5 0.1-1 0.1 0 0.3 0 0.3 0 0.6 0 0.5 0 0.9 0 0.5 0 0.6 0.1 0 0.1-0.1 0.4 0 0.2 0 0.6-0.1 0.3-0.1 0.7 0 0.3 0.1 0.6 0 0.3 0.1 0.5 0.1 0.3 0.2 0.4 0.1 0.1 0.3 0.1 0.5 0 0.7-0.3 0.2-0.3 0.3-0.9 0.1-0.5 0.1-1.2 0-0.2 0-0.4 0-0.1 0-0.2 0-0.1 0-0.2 0-0.1 0-0.1 0.2 0 0.3-0.1 0.2 0 0.4 0 0.7 0 1.5 0.2 0 0.8 0 1.8 0 0.5 0 1.1 0 0.5 0 1.1-0.1 0.6-0.1 1.2-0.1 1.1-0.5 1.9-0.3 0.7-1.1 1.2-0.7 0.4-1.9 0.4z"/></svg>