<svg version="1.2" xmlns="http://www.w3.org/2000/svg" viewBox="5 19 26 13" width="26" height="13">
	<title>New Project</title>
	<style>
		.s0 { fill: #000000 } 
		.s1 { fill: #bababa } 
		.s2 { fill: #ffffff } 
	</style>
	<path id="-e-juji" fill-rule="evenodd" class="s0" d="m21.73 9.84q0 1.19-0.21 2.08-0.2 0.89-0.62 1.48-0.43 0.58-1.09 0.87-0.65 0.29-1.55 0.29-0.75 0-1.46-0.23-0.7-0.23-1.2-0.64-0.5-0.41-0.66-0.95 0.33-0.21 0.81-0.4 0.47-0.2 0.94-0.35 0.46-0.15 0.77-0.24 0.07 0.21 0.18 0.38 0.11 0.17 0.27 0.27 0.16 0.09 0.36 0.09 0.22 0 0.37-0.22 0.15-0.23 0.23-0.58 0.08-0.36 0.11-0.75 0.04-0.4 0.04-0.74 0-0.45-0.06-1-0.04-0.54-0.13-1.1-0.08-0.57-0.19-1.06-0.11-0.5-0.22-0.86l2.74-0.11q0.05 0.11 0.14 0.5 0.1 0.39 0.2 0.94 0.1 0.56 0.16 1.17 0.07 0.61 0.07 1.16zm-2.42-7.22q0.48 0 0.87 0.2 0.39 0.19 0.62 0.51 0.23 0.32 0.23 0.7 0 0.39-0.25 0.73-0.25 0.34-0.65 0.55-0.39 0.21-0.83 0.21-0.42 0-0.8-0.17-0.38-0.17-0.61-0.48-0.24-0.3-0.24-0.71 0-0.43 0.22-0.78 0.22-0.35 0.59-0.55 0.38-0.21 0.85-0.21zm6.64 2.95q0.21-0.07 0.59-0.1 0.38-0.04 0.74-0.04 0.3 0 0.66 0.03 0.37 0.02 0.6 0.06 0.07 0.42 0.1 0.84 0.03 0.41 0.03 0.82 0 0.94-0.18 1.77-0.17 0.82-0.58 1.45-0.4 0.63-1.08 0.99-0.66 0.35-1.64 0.35-1.02 0-1.69-0.37-0.66-0.37-1.04-1.03-0.37-0.67-0.52-1.57-0.15-0.9-0.15-1.96 0-0.36 0.01-0.74 0.02-0.39 0.05-0.78 0.22-0.02 0.55-0.03 0.35-0.02 0.63-0.02 0.41 0 0.82 0.04 0.42 0.04 0.66 0.1-0.03 0.33-0.07 0.77-0.03 0.43-0.03 0.89 0 0.61 0.06 1.19 0.06 0.57 0.25 0.94 0.19 0.36 0.56 0.36 0.35 0 0.53-0.33 0.19-0.33 0.25-0.84 0.07-0.52 0.07-1.06 0-0.52-0.05-0.99-0.06-0.46-0.13-0.74zm6.49 4.27q0 1.19-0.21 2.08-0.21 0.89-0.63 1.48-0.42 0.58-1.08 0.87-0.66 0.29-1.56 0.29-0.75 0-1.45-0.23-0.7-0.23-1.21-0.64-0.5-0.41-0.66-0.95 0.34-0.21 0.81-0.4 0.47-0.2 0.94-0.35 0.46-0.15 0.78-0.24 0.06 0.21 0.17 0.38 0.11 0.17 0.27 0.27 0.16 0.09 0.36 0.09 0.23 0 0.37-0.22 0.15-0.23 0.23-0.58 0.08-0.36 0.12-0.75 0.03-0.4 0.03-0.74 0-0.45-0.05-1-0.05-0.54-0.13-1.1-0.09-0.57-0.2-1.06-0.1-0.5-0.21-0.86l2.73-0.11q0.05 0.11 0.15 0.5 0.09 0.39 0.19 0.94 0.1 0.56 0.16 1.17 0.08 0.61 0.08 1.16zm-2.43-7.22q0.49 0 0.87 0.2 0.39 0.19 0.62 0.51 0.23 0.32 0.23 0.7 0 0.39-0.25 0.73-0.25 0.34-0.64 0.55-0.4 0.21-0.84 0.21-0.42 0-0.8-0.17-0.38-0.17-0.61-0.48-0.24-0.3-0.24-0.71 0-0.43 0.22-0.78 0.22-0.35 0.59-0.55 0.38-0.21 0.85-0.21zm5.27 8.72q-0.12 0-0.51 0.03-0.39 0.02-0.82 0.02-0.31 0-0.63-0.01-0.31-0.02-0.62-0.05 0.02-0.16 0.07-0.63 0.05-0.48 0.09-1.12 0.05-0.65 0.1-1.34 0.04-0.69 0.07-1.3 0.03-0.6 0.03-0.97 0.17-0.02 0.48-0.03 0.32-0.01 0.69-0.02 0.36-0.01 0.69-0.02 0.34-0.01 0.53-0.01 0.05 0.2 0.08 0.67 0.02 0.46 0.02 1.03 0 0.54-0.02 1.13-0.02 0.57-0.06 1.11-0.03 0.52-0.08 0.93-0.05 0.4-0.11 0.58zm-0.96-6.12q-0.68 0-1.17-0.36-0.48-0.36-0.48-0.97 0-0.41 0.22-0.7 0.23-0.3 0.59-0.45 0.37-0.17 0.77-0.17 0.64 0 1.07 0.38 0.43 0.37 0.43 0.96 0 0.56-0.41 0.94-0.42 0.37-1.02 0.37z"/>
	<path id="-e-juji" fill-rule="evenodd" class="s0" d="m-0.88 17.36q-0.41-0.14-0.75-0.39-0.34-0.26-0.54-0.62-0.21-0.36-0.21-0.81 0-0.23 0.02-0.41 0.04-0.18 0.08-0.35 0.03-0.17 0.06-0.35 0.03-0.19 0.03-0.42 0-0.37-0.11-0.65-0.12-0.29-0.37-0.49-0.26-0.2-0.67-0.31 0.24-0.38 0.61-0.82 0.37-0.44 0.66-0.74 0.62 0.14 1.12 0.54 0.5 0.4 0.79 0.93 0.3 0.53 0.3 1.08 0 0.18-0.05 0.37-0.04 0.18-0.12 0.38-0.07 0.23-0.14 0.47-0.06 0.25-0.06 0.51 0 0.58 0.3 0.84 0.3 0.26 0.79 0.26 0.1 0.18 0.14 0.43 0.05 0.24 0.05 0.46 0 0.2-0.04 0.45-0.04 0.26-0.13 0.39-0.44 0.07-0.65 0.27-0.21 0.19-0.21 0.57 0 0.3 0.07 0.56 0.07 0.26 0.15 0.5 0.09 0.24 0.15 0.48 0.06 0.24 0.06 0.51 0 0.61-0.32 1.18-0.31 0.56-0.81 0.96-0.51 0.4-1.1 0.51-0.16-0.18-0.4-0.64-0.23-0.46-0.33-1.02 0.48-0.25 0.68-0.49 0.21-0.23 0.21-0.52 0-0.27-0.07-0.52-0.07-0.25-0.16-0.5-0.1-0.26-0.17-0.53-0.07-0.26-0.07-0.55 0-0.46 0.27-0.83 0.29-0.38 0.76-0.6"/>
	<path id="-e-juji" fill-rule="evenodd" class="s1" d="m9.17 0.44q0.65 0 1.06 0.43 0.41 0.41 0.41 1.01 0 0.54-0.41 0.9-0.42 0.36-0.98 0.36-0.44 0-0.81-0.17-0.37-0.18-0.61-0.48-0.23-0.31-0.23-0.71 0-0.38 0.22-0.67 0.22-0.31 0.58-0.49 0.35-0.18 0.77-0.18zm0.28 8.3q-0.09-0.02-0.29-0.21-0.19-0.19-0.4-0.44-0.2-0.25-0.33-0.44 0.15-0.05 0.34-0.18 0.2-0.14 0.35-0.29 0.15-0.15 0.15-0.23 0-0.03-0.01-0.04-0.09 0.04-0.23 0.08-0.14 0.03-0.36 0.03-0.45 0-0.73-0.34-0.28-0.34-0.28-0.76 0-0.45 0.26-0.71 0.27-0.26 0.66-0.38 0.39-0.12 0.76-0.12 0.39 0 0.78 0.14 0.38 0.14 0.63 0.46 0.26 0.31 0.26 0.86 0 0.85-0.43 1.5-0.43 0.65-1.13 1.07z"/>
	<path id="-e-juji" fill-rule="evenodd" class="s2" d="m5.52 27.8q0-0.04 0.01-0.41 0.01-0.38 0.02-0.98 0.01-0.6 0.03-1.32 0.02-0.73 0.05-1.48 0.02-0.76 0.05-1.43 0.02-0.68 0.06-1.18 0.03-0.51 0.06-0.72 0.64-0.12 1.33-0.17 0.68-0.05 1.38-0.05 0.89 0 1.57 0.24 0.69 0.24 1.07 0.74 0.39 0.5 0.39 1.3 0 0.76-0.29 1.35-0.27 0.59-0.87 0.92-0.59 0.34-1.5 0.34-0.14 0-0.37-0.03-0.23-0.03-0.3-0.07 0 0.15-0.01 0.56-0.01 0.41-0.02 0.9-0.02 0.49-0.03 0.92-0.01 0.43-0.02 0.63-0.18 0-0.53 0-0.34-0.01-0.75-0.01-0.39-0.01-0.76-0.03-0.35-0.01-0.57-0.02zm2.63-4.86q0.09 0.01 0.2 0.03 0.13 0.01 0.22 0.01 0.24 0 0.43-0.09 0.19-0.08 0.29-0.23 0.11-0.15 0.11-0.35 0-0.33-0.2-0.44-0.2-0.12-0.56-0.12-0.13 0-0.26 0.02-0.13 0.01-0.26 0.02 0 0.03 0 0.14 0.01 0.1 0.01 0.24 0.01 0.14 0.01 0.29 0 0.15 0 0.28 0.01 0.13 0.01 0.2zm7.8 4.63q-0.21 0.16-0.78 0.31-0.57 0.15-1.23 0.15-0.83 0-1.27-0.33-0.44-0.32-0.6-0.93-0.17-0.62-0.17-1.45 0-0.74 0.02-1.42 0.01-0.68 0.03-1.32 0.02-0.63 0.05-1.21 0.03-0.58 0.07-1.11 0.03-0.54 0.06-1.01 0.58-0.04 1.06-0.04 0.3 0 0.6 0.01 0.31 0.02 0.68 0.05-0.04 0.58-0.08 1.24-0.05 0.65-0.09 1.3-0.03 0.65-0.07 1.24-0.03 0.58-0.05 1.03-0.02 0.44-0.02 0.68 0 0.34 0.03 0.61 0.03 0.27 0.13 0.44 0.1 0.16 0.3 0.16 0.2 0 0.33-0.07 0.14-0.08 0.22-0.2 0.05 0.09 0.16 0.36 0.12 0.27 0.25 0.59 0.13 0.33 0.24 0.59 0.1 0.25 0.13 0.33zm2.83 0.29q-0.8 0-1.46-0.19-0.67-0.2-1.06-0.66-0.4-0.45-0.4-1.2 0-0.77 0.48-1.22 0.47-0.45 1.22-0.65 0.76-0.19 1.59-0.19 0.27 0 0.52 0.04 0.25 0.03 0.44 0.1 0.2 0.06 0.3 0.13 0-0.12-0.06-0.28-0.07-0.15-0.18-0.25-0.17-0.14-0.41-0.24-0.24-0.1-0.68-0.1-0.42 0-0.78 0.19-0.35 0.18-0.54 0.4l-1.94-1.15q0.29-0.37 0.81-0.65 0.52-0.28 1.16-0.43 0.65-0.16 1.34-0.16 1.19 0 1.9 0.33 0.71 0.31 1.07 0.94 0.16 0.28 0.27 0.63 0.1 0.34 0.15 0.75 0.03 0.27 0.05 0.58 0.02 0.3 0.02 0.62 0 0.5 0.09 0.65 0.11 0.15 0.28 0.15 0.15 0 0.28-0.03 0.13-0.03 0.18-0.08l0.71 1.56q-0.1 0.12-0.42 0.26-0.32 0.13-0.86 0.13-0.38 0-0.75-0.11-0.36-0.1-0.62-0.3-0.24-0.2-0.28-0.48-0.09 0.23-0.39 0.44-0.31 0.21-0.81 0.34-0.51 0.13-1.22 0.13zm0.56-1.71q0.23 0 0.49-0.06 0.27-0.07 0.48-0.16 0.22-0.09 0.3-0.15-0.02-0.07-0.04-0.2-0.01-0.14-0.01-0.2-0.12-0.05-0.43-0.09-0.3-0.04-0.59-0.04-0.26 0-0.53 0.04-0.26 0.03-0.43 0.13-0.18 0.09-0.18 0.27 0 0.16 0.11 0.26 0.11 0.1 0.32 0.15 0.21 0.05 0.51 0.05zm7.1 4.76q-1.05 0-1.89-0.28-0.84-0.28-1.42-0.63 0.1-0.24 0.3-0.63 0.2-0.38 0.42-0.74 0.21-0.35 0.34-0.52 0.26 0.15 0.64 0.32 0.38 0.17 0.82 0.29 0.44 0.12 0.87 0.12 0.39 0 0.66-0.19 0.27-0.19 0.44-0.5 0.17-0.31 0.25-0.67 0.08-0.36 0.09-0.7-0.17 0.23-0.43 0.4-0.26 0.18-0.56 0.28-0.3 0.1-0.6 0.1-1.04 0-1.63-0.5-0.58-0.5-0.81-1.34-0.24-0.85-0.24-1.89 0-0.41 0.02-0.85 0.02-0.45 0.05-0.94 0.13-0.03 0.39-0.04 0.26-0.01 0.57-0.01 0.46 0 0.89 0.02 0.44 0.02 0.6 0.05-0.03 0.12-0.07 0.39-0.04 0.27-0.07 0.63-0.03 0.36-0.03 0.74 0 0.31 0.03 0.6 0.03 0.29 0.11 0.52 0.08 0.23 0.21 0.36 0.14 0.14 0.35 0.14 0.42 0 0.65-0.32 0.24-0.33 0.33-0.89 0.09-0.56 0.09-1.26 0-0.19-0.01-0.33 0-0.15-0.01-0.25 0-0.12-0.02-0.19 0-0.08-0.01-0.14 0.19-0.01 0.37-0.01 0.18-0.02 0.35-0.02 0.74 0 1.49 0.15 0.04 0.79 0.04 1.78 0 0.53-0.02 1.11 0 0.57-0.03 1.17-0.02 0.59-0.06 1.2-0.05 1.03-0.45 1.82-0.39 0.78-1.14 1.22-0.75 0.43-1.87 0.43z"/>
	<g id="Layer 1">
	</g>
</svg>